# xmcd
#
# Track frame offsets: 
#        150
#        15505
#        29380
#        42993
#        61030
#        76320
#        90555
#        109357
#        122397
#        139165
#        156620
#
# Disc length: 2278 seconds
#
# Revision: 1
# Processed by: cddbd v1.5.2PL0 Copyright (c) Steve Scherf et al.
# Submitted via: ExactAudioCopy v1.3
#
DISCID=8708e40b
DTITLE=Lee Greenwood - Greatest Hits - Volume 2
DYEAR=1988
DGENRE=Country
TTITLE0=I Don't Mind The Thorns (When You're The Rose)
TTITLE1=Don't Underestimate My Love For You
TTITLE2=Hearts Aren't Made To Break (They're Made To Love)
TTITLE3=Didn't We
TTITLE4=Mornin' Ride
TTITLE5=Someone
TTITLE6=If There's Any Justice
TTITLE7=Touch And Go Crazy
TTITLE8=I Still Believe
TTITLE9=You Can't Fall In Love When You're Cryin'
TTITLE10=God Bless The USA
EXTD=
EXTT0=
EXTT1=
EXTT2=
EXTT3=
EXTT4=
EXTT5=
EXTT6=
EXTT7=
EXTT8=
EXTT9=
EXTT10=
PLAYORDER=
